<svg xmlns="http://www.w3.org/2000/svg" viewBox="0 0 1024 1024" width="1024" height="1024" role="img" aria-label="Durian Flow">
<path d="M 429 358.047 C 413.844 359.877, 404.373 363.631, 398.491 370.141 C 392.633 376.626, 391.551 380.053, 391.591 392 C 391.621 401.107, 392.044 403.719, 394.772 411.686 C 406.061 444.642, 442.532 499.123, 491.883 556.750 C 497.653 563.487, 502.651 569, 502.990 569 C 503.329 569, 505.573 566.188, 507.976 562.750 C 533.820 525.786, 573.539 499.152, 616 490.316 C 623.814 488.689, 645.001 488.155, 659 489.231 C 662.190 489.476, 662.475 489.281, 662.223 487.031 C 660.626 472.796, 631.537 438.304, 603.500 417.399 C 547.688 375.784, 478.112 352.119, 429 358.047 M 428 373.628 C 418.724 375.422, 415 378.740, 415 385.212 C 415 388.202, 415.680 389.834, 417.819 391.972 L 420.637 394.791 439.569 394.306 C 455.766 393.891, 459.944 394.108, 468.500 395.808 C 477.016 397.500, 478.963 397.604, 481.619 396.503 C 485.755 394.790, 488 391.388, 488 386.833 C 488 377.450, 478.072 374.100, 448.500 373.506 C 438.600 373.307, 429.375 373.362, 428 373.628 M 620.678 511.519 C 586.229 517.308, 547.728 542.731, 527.943 572.754 C 522.025 581.734, 519.375 588.313, 520.606 590.970 C 523.504 597.223, 591.442 665.910, 618 689.437 C 636.665 705.971, 660.923 725.376, 673 733.432 C 720.862 765.359, 742.425 759.559, 752.669 712 C 755.262 699.962, 755.259 663.198, 752.663 647.673 C 740.304 573.754, 702.948 521.276, 655.792 511.584 C 646.664 509.708, 631.622 509.680, 620.678 511.519 M 644.110 527.396 C 635.880 531.957, 638.371 544.887, 647.810 546.603 C 668.572 550.378, 691.635 572.715, 703.043 600.097 C 708.290 612.691, 714.500 616.099, 721.234 610.082 C 726.224 605.624, 725.815 601.136, 719.172 587.465 C 704.758 557.800, 683.987 536.987, 660.709 528.884 C 651.688 525.744, 647.730 525.389, 644.110 527.396"  fill="#FFD24A" fill-rule="evenodd"/>
<path d="M 494.204 116.104 C 451.654 121.845, 413.437 147.342, 393.982 182.971 C 381.674 205.508, 377.180 224.577, 378.534 248.512 C 379.173 259.822, 379.082 260.747, 376.965 264.335 C 374.144 269.116, 373.634 268.646, 368.065 256.133 C 363.379 245.604, 348.074 212.944, 327.205 168.940 C 319.494 152.682, 312.525 137.799, 311.718 135.867 C 309.334 130.161, 304.471 125.485, 297.818 122.499 C 276.541 112.950, 237.843 129.167, 225.939 152.620 C 222.866 158.674, 222.500 160.252, 222.500 167.448 L 222.500 175.500 248.890 225 C 263.404 252.225, 278.542 280.575, 282.529 288 C 298.762 318.231, 309 338.058, 309 339.263 C 309 340.034, 301.371 343.061, 289.750 346.902 C 265.865 354.796, 265.292 355.086, 262.889 360.517 L 260.954 364.892 264.477 383.877 C 266.415 394.318, 268 404.171, 268 405.771 C 268 408.463, 266.533 409.610, 248.397 421.091 C 227.406 434.378, 226 435.771, 226 443.281 C 226 447.254, 227.163 449.350, 238.500 465.802 C 245.375 475.780, 250.995 484.518, 250.989 485.221 C 250.983 485.925, 244.463 495.275, 236.501 506 C 220.838 527.099, 219.050 530.590, 220.952 536.355 C 222.368 540.644, 222.698 540.917, 244.562 555.848 C 253.946 562.257, 262.838 568.400, 264.322 569.500 L 267.020 571.500 258.510 596.978 C 253.830 610.991, 250 623.726, 250 625.278 C 250 628.890, 252.450 633.635, 255.026 635.014 C 256.130 635.605, 267.712 640.372, 280.766 645.609 C 293.820 650.845, 304.825 655.448, 305.223 655.838 C 305.620 656.227, 305.288 670.850, 304.484 688.333 C 302.425 733.124, 299.960 729.820, 336.894 731.773 C 350.977 732.517, 362.831 733.451, 363.235 733.848 C 363.639 734.245, 366.280 746.929, 369.103 762.035 C 375.601 796.800, 375.585 796.739, 379.121 800.275 C 381.857 803.011, 382.512 803.201, 387.790 802.785 C 390.931 802.538, 402.202 799.960, 412.838 797.057 C 424.555 793.858, 432.538 792.138, 433.093 792.693 C 434.067 793.667, 441.836 814.693, 446.952 830.199 C 451.791 844.867, 454.454 848, 462.083 848 C 463.706 848, 473.868 844.625, 484.664 840.500 C 495.461 836.375, 504.435 833, 504.607 833 C 504.779 833, 511.681 841.700, 519.946 852.333 C 528.211 862.966, 535.861 872.469, 536.946 873.451 C 538.031 874.433, 540.970 875.468, 543.476 875.750 C 548.654 876.334, 550.064 875.591, 573.724 859.817 C 580.997 854.967, 587.393 851, 587.938 851 C 588.484 851, 597.260 856.625, 607.441 863.500 C 633.028 880.778, 631.873 880.867, 650.954 860.156 C 657.209 853.367, 662.833 847.618, 663.452 847.380 C 664.071 847.143, 672.435 849.939, 682.039 853.595 C 699.583 860.274, 705.401 861.461, 709.592 859.218 C 710.738 858.605, 715.594 852.939, 720.382 846.628 C 731.101 832.498, 737.008 828.371, 757.140 820.948 C 783.485 811.235, 798.986 796.843, 809.519 772.319 C 815.634 758.080, 818.068 736.842, 815.706 718.329 L 814.918 712.157 826.751 698.829 C 841.718 681.970, 842 681.547, 842 675.947 C 842 671.591, 841.284 670.387, 828.901 653.920 C 821.697 644.339, 815.579 635.952, 815.306 635.282 C 815.034 634.612, 818.965 626.287, 824.042 616.782 C 831.787 602.284, 833.283 598.748, 833.329 594.834 C 833.361 592.165, 832.767 589.423, 831.942 588.426 C 831.149 587.468, 822.523 579.980, 812.774 571.785 C 803.025 563.591, 794.800 556.485, 794.496 555.994 C 794.193 555.503, 796.662 545.482, 799.982 533.725 C 806.565 510.419, 806.737 507.971, 802.122 503.344 C 800.680 501.898, 790.506 496.020, 779.513 490.283 C 768.521 484.546, 758.919 479.348, 758.177 478.732 C 757.152 477.882, 756.977 475.786, 757.452 470.055 C 760.322 435.379, 760.099 429.813, 755.693 426.159 C 754.804 425.422, 742.929 421.558, 729.304 417.572 L 704.531 410.325 701.364 388.122 C 697.515 361.140, 697.585 361.432, 694.026 357.872 L 691.154 355 666.699 355 C 648.174 355, 641.990 354.693, 641.193 353.732 C 640.614 353.035, 636.718 345.059, 632.534 336.008 C 628.351 326.958, 623.972 318.535, 622.804 317.291 C 619.502 313.777, 615.410 313.602, 600.359 316.333 C 573.637 321.182, 571.277 321.475, 569.667 320.139 C 568.854 319.464, 563.402 311.958, 557.552 303.459 C 546.886 287.965, 543.850 285, 538.651 285 C 537.304 285, 526.401 288.603, 514.422 293.006 C 493.128 300.833, 492.595 300.971, 490.571 299.188 C 483.595 293.045, 460.138 274.109, 458.316 273.150 C 452.641 270.163, 450.088 271.158, 424.500 286.332 C 415.150 291.876, 406.825 296.362, 406 296.299 C 401.798 295.980, 386.838 292.238, 385.863 291.263 C 384.665 290.065, 389.669 279.845, 394.744 273.125 L 397.292 269.751 404.396 270.389 C 421.115 271.892, 447.053 267.783, 463.149 261.082 C 493.478 248.456, 518.434 220.042, 528.393 186.796 C 532.753 172.242, 534.209 160.084, 533.837 141.345 C 533.467 122.731, 532.837 120.518, 527.056 117.529 C 523.311 115.592, 504.156 114.761, 494.204 116.104 M 490.235 137.480 C 454.203 144.100, 424.138 166.500, 408.013 198.740 C 402.841 209.081, 396.382 232, 398.640 232 C 399.005 232, 405.422 225.800, 412.902 218.222 C 430.690 200.200, 447.858 187.173, 463.418 179.891 C 470.585 176.538, 473.423 176.693, 477.132 180.641 C 478.772 182.386, 479.455 184.302, 479.455 187.159 C 479.455 192.089, 476.982 194.473, 465.326 200.782 C 449.817 209.175, 429.938 225.938, 417.133 241.419 C 409.675 250.434, 409.794 250.580, 423.846 249.647 C 454.069 247.642, 480.426 232.617, 496.883 208.014 C 508.764 190.252, 515.680 165.547, 514.805 144 L 514.500 136.500 506 136.322 C 501.325 136.225, 494.231 136.745, 490.235 137.480 M 269.977 144.345 C 258.408 148.430, 247.515 156.885, 244.874 163.831 C 243.292 167.991, 245.935 169.266, 255 168.719 C 263.830 168.185, 271.629 165.431, 279.846 159.944 C 285.448 156.203, 291 149.599, 291 146.676 C 291 141.660, 280.790 140.528, 269.977 144.345 M 295.515 173.556 C 289.011 179.383, 276.514 185.508, 265.666 188.186 C 260.900 189.362, 257 190.750, 257 191.270 C 257 191.790, 265.740 208.705, 276.422 228.858 C 287.104 249.011, 301.920 276.975, 309.347 291 C 316.773 305.025, 323.454 317.332, 324.192 318.349 C 325.438 320.065, 325.763 319.845, 328.709 315.299 C 333.351 308.136, 342.047 300.366, 349.220 296.972 C 352.674 295.338, 356.007 294.001, 356.628 294.001 C 357.248 294, 358.235 293.422, 358.821 292.715 C 359.944 291.363, 356.459 283.491, 329.289 226 C 322.140 210.875, 313.454 192.425, 309.985 185 C 303.631 171.401, 302.278 168.963, 301.128 169.045 C 300.782 169.069, 298.257 171.100, 295.515 173.556 M 548.063 222.783 C 544.607 226.239, 544.072 230.304, 546.463 234.928 C 548.255 238.395, 548.807 238.620, 562.500 241.501 C 598.515 249.078, 628.631 260.938, 660.599 280.134 C 667.804 284.460, 674.689 288, 675.899 288 C 682.230 288, 686.797 282.060, 685.555 275.441 C 684.949 272.212, 683.802 271.144, 674.191 264.860 C 660.320 255.791, 629.016 240.358, 612.500 234.447 C 596.602 228.756, 566.890 221.065, 557.813 220.291 C 551.352 219.740, 551.022 219.824, 548.063 222.783 M 734.050 231.488 C 725.480 232.645, 724.339 233.056, 721.800 235.898 C 717.281 240.955, 718.371 248.589, 724.030 251.515 C 726.766 252.930, 728.311 252.980, 736.737 251.919 C 801.936 243.712, 862.026 293.670, 866.729 359.993 C 867.262 367.514, 867.647 368.800, 870.089 371.243 C 873.904 375.058, 878.848 375.001, 883.223 371.092 C 886.312 368.332, 886.496 367.771, 886.849 359.992 C 887.277 350.562, 886.123 343.511, 881.877 329.613 C 861.936 264.342, 799.191 222.693, 734.050 231.488 M 737 278.628 C 725.501 280.086, 721.051 289.251, 728.314 296.514 L 731.629 299.829 743.640 299.275 C 758.015 298.613, 766.884 300.243, 778.102 305.610 C 802.323 317.198, 819.738 340.821, 822.516 365.858 C 823.411 373.920, 826.677 378.132, 832.156 378.287 C 840.008 378.510, 843.563 373.305, 842.491 363.157 C 838.526 325.631, 807.836 290.584, 770.500 280.945 C 762.650 278.919, 744.567 277.668, 737 278.628 M 434 306.101 C 408.358 321.122, 410.967 320.508, 393.500 315.622 C 382.716 312.605, 372.232 312.277, 363.566 314.686 C 354.767 317.133, 346.466 325.550, 342.661 335.885 C 333.995 359.426, 338.288 390.744, 355.414 428.898 C 383.762 492.056, 468.105 600.721, 556.149 687.522 C 614.884 745.428, 662.506 781.504, 698.500 795.361 C 757.001 817.882, 803.415 779.709, 793.861 716.931 C 792.093 705.311, 792.568 704.196, 805.535 689.543 C 811.841 682.416, 817 676.045, 817 675.384 C 817 674.723, 811.612 667.160, 805.027 658.577 C 798.443 649.994, 792.593 642.107, 792.027 641.051 C 789.773 636.838, 791.023 632.849, 800 615.608 C 804.950 606.102, 809 598.048, 809 597.711 C 809 597.374, 800.895 590.288, 790.989 581.963 C 781.083 573.639, 772.533 565.996, 771.989 564.980 C 770.190 561.618, 770.944 557.138, 776.622 537.472 C 781.154 521.775, 782.007 517.713, 781.023 516.527 C 780.351 515.718, 775.459 512.814, 770.151 510.074 C 745.721 497.462, 738.500 493.312, 736.696 490.847 C 734.800 488.257, 734.791 487.667, 736.286 465.847 C 737.129 453.556, 737.522 443.186, 737.159 442.802 C 736.797 442.418, 727.500 439.576, 716.500 436.486 C 691.235 429.389, 688.246 428.305, 686.469 425.594 C 685.645 424.336, 683.664 413.717, 681.869 400.942 C 680.135 388.599, 678.275 377.938, 677.736 377.250 C 677.001 376.314, 670.893 376, 653.393 376 L 630.032 376 627.137 373.250 C 625.435 371.633, 621.256 364.017, 616.993 354.766 C 613.006 346.113, 609.233 338.608, 608.608 338.090 C 607.878 337.483, 599.981 338.552, 586.486 341.082 C 574.944 343.246, 564.116 344.783, 562.425 344.496 C 558.381 343.811, 556.097 341.187, 545.020 324.500 C 539.909 316.800, 535.397 310.131, 534.993 309.680 C 534.590 309.229, 524.495 312.492, 512.561 316.932 C 496.934 322.745, 490.150 324.825, 488.315 324.364 C 486.913 324.012, 478.379 317.712, 469.349 310.362 C 460.319 303.013, 452.159 297.005, 451.216 297.011 C 450.272 297.016, 442.525 301.107, 434 306.101 M 739 324.704 C 732.141 327.200, 729.705 336.221, 734.413 341.694 C 736.705 344.358, 737.280 344.506, 745.806 344.628 C 756.318 344.777, 763.883 347.603, 770.369 353.802 C 774.865 358.100, 779.998 368.121, 779.999 372.602 C 780.001 380.392, 787.920 385.839, 794.608 382.650 C 800.143 380.010, 801.556 375.499, 799.583 366.763 C 793.976 341.935, 771.911 323.857, 747.500 324.091 C 743.650 324.128, 739.825 324.404, 739 324.704 M 228.372 336.986 C 227.202 337.459, 222.431 342.268, 217.771 347.673 C 171.089 401.815, 144.101 469.358, 140.433 541.221 C 139.646 556.651, 140.404 560.124, 145.091 562.547 C 149.326 564.737, 152.620 564.312, 156.199 561.113 L 159.431 558.226 160.165 541.363 C 163.056 474.996, 189.216 410.151, 233.403 359.824 C 237.939 354.658, 241.269 349.907, 241.634 348.080 C 243.203 340.237, 235.754 334.005, 228.372 336.986 M 428.500 337.040 C 417.995 338.046, 403.652 341.986, 396.562 345.812 C 388.668 350.072, 379.738 359.046, 376.252 366.224 C 363.074 393.355, 373.609 428.478, 412.328 486.500 C 435.850 521.749, 485.115 583.419, 494.217 589.008 C 497.499 591.023, 498.633 592.535, 499.995 596.712 C 501.382 600.968, 504.018 604.406, 514.554 615.705 C 570.796 676.016, 614.173 716.502, 652.599 744.551 C 681.555 765.688, 701.209 774.281, 720.500 774.239 C 749.659 774.176, 768.107 750.166, 774.085 704.500 C 775.778 691.562, 774.704 657.802, 772.110 642.475 C 760.866 576.023, 730.495 525.099, 687.802 501.114 L 682.105 497.913 682.678 493.067 C 685.456 469.615, 652.465 426.679, 606 393.274 C 581.284 375.505, 546.946 358.172, 518.174 348.942 C 487.789 339.194, 453.509 334.644, 428.500 337.040 M 422.500 358.480 C 400.212 362.619, 390.509 372.829, 390.644 392 C 390.828 418.118, 418.369 466.326, 470.054 531 C 482.451 546.513, 501.774 569.335, 502.867 569.755 C 503.232 569.895, 506.442 565.885, 510.001 560.843 C 535.821 524.260, 577.019 497.739, 619.500 490.352 C 627.589 488.945, 648.088 488.878, 660 490.219 C 663.641 490.628, 663.692 487.483, 660.170 479.715 C 643.979 444.006, 589.937 400.009, 534 376.996 C 510.943 367.511, 488.360 361.162, 468 358.442 C 455.077 356.715, 431.900 356.735, 422.500 358.480 M 299.701 366.609 C 291.663 369.219, 285.663 371.714, 285.329 372.586 C 285.013 373.409, 286.403 383.213, 288.417 394.372 C 292.330 416.056, 292.298 417.640, 287.856 421.601 C 286.560 422.757, 280.550 426.767, 274.500 430.514 C 255.677 442.169, 251.794 445.022, 252.445 446.718 C 252.771 447.567, 257.982 455.360, 264.025 464.036 C 274.829 479.546, 276.812 483.670, 275.651 488.213 C 275.330 489.471, 268.547 499.275, 260.578 510 C 247.040 528.221, 246.202 529.606, 247.795 531.115 C 249.512 532.742, 253.463 535.518, 275.561 550.627 C 287.698 558.926, 290.003 561.508, 289.997 566.797 C 289.995 568.284, 286.417 580.524, 282.045 593.998 C 277.384 608.361, 274.465 618.865, 274.988 619.388 C 275.479 619.879, 286.365 624.500, 299.179 629.657 C 311.994 634.814, 323.383 639.945, 324.489 641.057 C 326.418 642.998, 326.481 644.045, 326.032 666.790 C 325.775 679.831, 325.550 694.775, 325.532 700 L 325.500 709.500 351.334 711 L 377.168 712.500 380.084 715.766 C 381.688 717.562, 382.999 719.812, 382.999 720.766 C 382.996 725.227, 393.380 776.664, 394.530 777.881 C 395.633 779.050, 399.067 778.396, 416.861 773.631 C 428.427 770.534, 439.257 768, 440.929 768 C 447.282 768, 449.244 771.348, 458.464 797.918 C 463.124 811.349, 467.289 822.672, 467.718 823.081 C 468.148 823.490, 476.980 820.489, 487.344 816.412 C 497.708 812.336, 507.293 809, 508.644 809 C 512.246 809, 516.172 811.351, 518.918 815.153 C 529.613 829.959, 546.575 850.993, 547.526 850.629 C 548.169 850.382, 556.960 844.693, 567.061 837.987 C 583.683 826.951, 585.766 825.839, 589.001 826.273 C 591.462 826.603, 598.051 830.529, 610.157 838.876 C 619.827 845.544, 628.360 850.969, 629.120 850.930 C 629.879 850.892, 634.550 846.147, 639.500 840.386 C 652.427 825.340, 655.172 823, 659.893 823 C 662.221 823, 668.940 825.047, 676.640 828.101 C 694.817 835.311, 700.089 837.246, 700.475 836.848 C 703.375 833.851, 710.014 823.480, 709.646 822.521 C 709.375 821.814, 706.761 820.662, 703.838 819.961 C 681.722 814.656, 649.415 796.634, 617.727 771.926 C 520.498 696.116, 388.906 543.113, 342.502 451.921 C 326.889 421.238, 318.413 393.125, 316.749 366.508 C 316.583 363.846, 316.001 362.452, 315 362.322 C 314.175 362.215, 307.291 364.144, 299.701 366.609 M 751.315 366.102 C 746.930 367.371, 742.260 372.322, 740.986 377.053 C 737.941 388.360, 748.895 399.445, 759.865 396.159 C 774.335 391.823, 776.295 373.943, 763.034 367.250 C 758.263 364.842, 756.326 364.652, 751.315 366.102 M 429.547 374.074 C 422.041 375.112, 418.945 376.627, 416.402 380.510 C 414.253 383.789, 415.228 388.928, 418.600 392.090 C 420.925 394.271, 421.802 394.453, 427.835 394 C 441.243 392.994, 461.397 393.691, 470.272 395.468 C 477.556 396.926, 479.558 397.012, 482.070 395.971 C 488.184 393.438, 489.617 384.807, 484.691 380.180 C 479.524 375.325, 446.749 371.696, 429.547 374.074 M 840.589 413.077 C 839.165 414.769, 838 417.274, 838 418.644 C 838 420.013, 840.888 427.066, 844.418 434.317 C 868.277 483.321, 879.415 532.093, 879.289 587 C 879.169 639.289, 868.099 686.971, 844.605 736.396 C 840.972 744.040, 838 751.345, 838 752.631 C 838 753.916, 839.304 756.428, 840.898 758.211 C 843.246 760.839, 844.550 761.455, 847.771 761.455 C 853.136 761.455, 854.394 760.172, 860.011 748.978 C 879.475 710.192, 891.957 666.881, 897.183 620 C 899.048 603.272, 898.720 562.879, 896.574 545 C 892.395 510.173, 884.753 479.869, 872.511 449.572 C 865.343 431.832, 855.516 412.346, 853.079 411.042 C 852.008 410.469, 849.342 410, 847.155 410 C 843.942 410, 842.681 410.591, 840.589 413.077 M 307.923 464.923 C 306.315 466.531, 305 468.469, 305 469.230 C 305 469.992, 304.110 478.014, 303.023 487.057 C 301.936 496.101, 300.783 505.830, 300.460 508.678 C 299.748 514.966, 301.589 519.173, 305.818 520.925 C 309.647 522.511, 348.700 518.082, 352.429 515.639 C 358.029 511.969, 357.724 504.065, 351.814 499.692 C 349.172 497.738, 348.904 497.733, 335.550 499.403 C 328.083 500.337, 321.602 500.872, 321.150 500.592 C 320.427 500.146, 320.857 495.307, 323.578 473.284 C 324.180 468.410, 324.023 467.869, 321.188 465.034 C 317.039 460.885, 312.003 460.843, 307.923 464.923 M 629.500 509.637 C 608.087 511.914, 583.420 521.683, 563.721 535.688 C 547.601 547.149, 528.544 568.191, 522.472 581.232 C 518.354 590.079, 518.526 590.504, 532.250 605.271 C 584.495 661.490, 637.934 710.283, 673.500 734.240 C 715.882 762.788, 737.811 760.366, 749.554 725.841 C 753.947 712.924, 755.383 702.117, 755.377 682 C 755.356 600.856, 715.131 528.070, 661.761 512.604 C 653.141 510.106, 638.099 508.722, 629.500 509.637 M 645.213 527.507 C 641.451 529.141, 638.905 534.051, 639.690 538.158 C 640.418 541.969, 644.723 545.421, 650.500 546.829 C 671.287 551.894, 692.351 573.338, 704.288 601.590 C 707.098 608.239, 708.206 609.786, 711.238 611.296 C 718.367 614.843, 725.053 608.885, 723.651 600.233 C 722.823 595.127, 714.250 577.761, 707.937 568.407 C 694.372 548.303, 673.846 532.370, 655.356 527.589 C 648.150 525.726, 649.291 525.735, 645.213 527.507 M 343.694 552.026 C 340.294 554.700, 340.410 554.184, 337.558 579.447 C 334.855 603.384, 334.950 604.433, 340.153 608.283 C 342.794 610.237, 342.897 610.235, 361.653 608.009 C 385.732 605.150, 387.596 604.682, 389.493 601.013 C 391.891 596.377, 391.408 592.254, 388.077 588.923 C 384.650 585.496, 385.031 585.522, 369.223 587.637 C 362.471 588.541, 356.647 588.980, 356.280 588.614 C 355.914 588.247, 356.325 581.321, 357.195 573.224 C 358.532 560.781, 358.569 557.995, 357.437 555.244 C 355.272 549.984, 348.351 548.363, 343.694 552.026 M 155.500 586.881 C 137.223 591.700, 127.495 611.382, 135.153 628.046 C 138.473 635.267, 143.011 640.343, 148.544 643.021 L 153 645.178 153.035 683.339 C 153.061 711.394, 153.393 722.058, 154.285 723.609 C 154.953 724.768, 164.725 734.425, 176 745.068 C 187.275 755.711, 196.845 764.973, 197.267 765.650 C 197.688 766.328, 197.913 778.707, 197.767 793.160 L 197.500 819.438 193.277 820.272 C 189.074 821.103, 189.028 821.080, 183.277 815.212 C 170.969 802.652, 153.541 802.329, 141.435 814.435 C 126.859 829.011, 131.045 854.035, 149.500 862.647 C 156.787 866.048, 167.690 865.955, 174.759 862.433 C 184.050 857.803, 190.653 847.524, 191.284 836.705 C 191.648 830.477, 192.191 829.565, 196.086 828.651 C 197.938 828.216, 199.624 828.747, 202.030 830.522 L 205.389 833 247.170 833 L 288.951 833 303.243 850.250 C 311.103 859.737, 322.392 873.461, 328.328 880.748 C 334.265 888.034, 339.965 894.446, 340.995 894.998 C 342.149 895.615, 356.874 896, 379.327 896 L 415.785 896 428.143 902.440 C 459.855 918.967, 492.940 929.694, 529 935.139 C 551.788 938.581, 595.352 938.585, 618 935.148 C 678.878 925.908, 732.454 900.698, 778.169 859.781 C 788.175 850.825, 790.001 847.331, 787.634 841.666 C 785.914 837.549, 783.452 836, 778.630 836 C 775.637 836, 773.632 837.326, 764.815 845.131 C 720.996 883.924, 672.959 906.240, 613 915.659 C 594.694 918.535, 550.403 918.269, 531 915.167 C 495.450 909.483, 461.389 897.948, 432.913 881.948 L 422.325 876 386.285 876 L 350.244 876 344.810 869.750 C 341.821 866.313, 332.459 854.950, 324.004 844.500 C 315.550 834.050, 306.207 822.693, 303.242 819.261 L 297.851 813.023 257.675 812.761 L 217.500 812.500 217 785 C 216.717 769.410, 216.067 756.781, 215.500 755.840 C 214.950 754.927, 208.875 748.883, 202 742.410 C 195.125 735.937, 185.338 726.677, 180.250 721.833 L 171 713.025 171 679.033 L 171 645.041 174.863 643.070 C 180.884 639.998, 187.739 631.705, 189.628 625.208 C 195.085 606.436, 182.592 587.827, 163.614 586.459 C 160.801 586.256, 157.150 586.446, 155.500 586.881 M 157.388 605.980 C 150.644 608.705, 148.970 617.618, 154.104 623.465 C 156.831 626.572, 157.778 627, 161.917 627 C 165.786 627, 167.112 626.493, 169.350 624.156 C 177.859 615.275, 168.727 601.399, 157.388 605.980 M 411.752 629.354 C 408.890 632.007, 408.199 638.447, 407.734 666.823 L 407.500 681.146 410.766 684.073 C 412.562 685.683, 414.818 687, 415.778 687 C 417.787 687, 450.863 679.459, 455.767 677.883 C 464.148 675.190, 463.749 661.367, 455.238 659.578 C 453.703 659.255, 447.010 660.281, 440 661.914 C 433.125 663.516, 427.197 664.528, 426.826 664.163 C 426.455 663.798, 426.502 657.200, 426.929 649.500 C 427.768 634.387, 427.021 630.152, 423.150 628.080 C 419.672 626.219, 414.513 626.795, 411.752 629.354 M 373.778 646.960 C 372.407 648.038, 368.480 654.384, 365.050 661.061 C 359.796 671.292, 358.915 673.732, 359.448 676.572 C 360.224 680.711, 363.287 683, 368.048 683 C 372.704 683, 374.239 681.242, 381.344 667.785 C 388.089 655.007, 388.540 651.474, 383.923 647.589 C 380.248 644.496, 377.154 644.304, 373.778 646.960 M 235.703 674.442 C 222.876 679.018, 215.976 688.986, 216.022 702.876 C 216.057 713.530, 221.910 723.283, 231.122 728.040 C 235.472 730.286, 235.469 730.259, 235.842 761 L 236.091 781.500 242.436 787.750 L 248.781 794 277.199 794 C 298.432 794, 306.014 794.316, 307.183 795.250 C 308.044 795.938, 320.542 809.550, 334.957 825.500 C 349.372 841.450, 362.485 855.737, 364.098 857.250 L 367.032 860 390.593 860 L 414.154 860 417.077 857.077 C 420.372 853.782, 420.893 849.628, 418.575 845.145 C 416.200 840.553, 413.498 840, 393.419 840 L 374.932 840 369.134 833.750 C 365.946 830.313, 352.665 815.688, 339.621 801.250 C 326.577 786.813, 315.814 774.917, 315.703 774.816 C 315.591 774.716, 302 774.378, 285.500 774.066 L 255.500 773.500 255.231 751.811 L 254.961 730.123 257.665 728.311 C 275.258 716.523, 277.674 693.883, 262.767 680.480 C 255.159 673.640, 244.573 671.278, 235.703 674.442 M 238.881 692.503 C 236.236 693.941, 233 699.414, 233 702.451 C 233 704.986, 235.738 709.703, 238.217 711.439 C 239.442 712.298, 242.414 713, 244.821 713 C 248.428 713, 249.708 712.454, 252.099 709.894 C 260.549 700.848, 249.728 686.609, 238.881 692.503 M 470.306 696.411 L 467.500 698.823 466.953 721.661 C 466.329 747.677, 466.763 750.167, 472.324 752.491 C 475.531 753.831, 476.832 753.604, 495.610 748.425 C 512.820 743.680, 515.871 742.538, 518.250 739.955 C 521.846 736.050, 521.985 730.894, 518.586 727.495 C 514.787 723.696, 512.385 723.688, 499.082 727.423 C 492.252 729.341, 486.277 730.671, 485.804 730.379 C 485.331 730.086, 485.069 722.873, 485.222 714.349 L 485.500 698.850 482.694 696.425 C 478.988 693.222, 474.023 693.217, 470.306 696.411 M 544.862 758.984 L 541.879 761.967 542.552 784.234 C 543.281 808.327, 543.610 809.767, 548.870 811.946 C 552.160 813.309, 554.145 812.783, 579.784 803.745 C 591.796 799.511, 594 797.609, 594 791.473 C 594 788.398, 589.078 783, 586.273 783 C 585.239 783, 579.716 784.575, 574 786.500 C 558.844 791.604, 560 792.434, 560 776.450 C 560 758.902, 558.700 756, 550.841 756 C 548.850 756, 546.846 757, 544.862 758.984 M 158.418 824.931 C 154.884 826.425, 151 831.872, 151.004 835.327 C 151.017 846.934, 166.774 850.833, 171.723 840.454 C 175.726 832.060, 166.638 821.457, 158.418 824.931"  fill="#FFFFFF" fill-rule="evenodd"/>
</svg>
