<svg width="180" height="180" viewBox="0 0 180 180" fill="none" xmlns="http://www.w3.org/2000/svg">
  <rect width="180" height="180" rx="40" fill="#146B3E"/>
  <circle cx="90" cy="92" r="58" fill="#E7F3EC" opacity="0.18"/>
  <path
    d="M90 46c24 0 42 18 42 44 0 29-19 52-42 52S48 119 48 90c0-26 18-44 42-44Z"
    fill="#E7F3EC"
    opacity="0.22"
  />
  <path
    d="M89 32c5 5 9 12 11 20l11-5 2 12 12-1-4 11 11 4-7 10 10 8-10 7 7 10-11 4 4 11-12-1-2 12-11-5-7 11-7-11-11 5-2-12-12 1 4-11-11-4 7-10-10-7 10-8-7-10 11-4-4-11 12 1 2-12 11 5c1-8 3-15 5-20Z"
    stroke="white"
    stroke-width="8"
    stroke-linejoin="round"
  />
  <path
    d="M91 50c3-10 9-17 19-21"
    stroke="white"
    stroke-width="8"
    stroke-linecap="round"
  />
  <path
    d="M70 78c12-7 29-7 40 0M66 98c14-8 34-8 48 0M75 116c8 4 21 4 30 0"
    stroke="white"
    stroke-width="7"
    stroke-linecap="round"
  />
</svg>
